<?xml version="1.0" encoding="utf-8"?>
<svg version="1.1" xmlns="http://www.w3.org/2000/svg" xmlns:xlink="http://www.w3.org/1999/xlink" height="200" width="250">
  <defs>
    <path id="path-1" opacity="1" fill-rule="evenodd" d="M176,135 L93,135 C89.13400268554688,135 86,131.86599731445312 86,128 C86,124.13400268554688 89.13400268554688,121 93,121 L54,121 C50.13400650024414,121 47,117.86599731445312 47,114 C47,110.13400268554688 50.13400650024414,107 54,107 L94,107 C97.86599731445312,107 101,103.86599731445312 101,100 C101,96.13400268554688 97.86599731445312,93 94,93 L69,93 C65.13400268554688,93 62,89.86599731445312 62,86 C62,82.13400268554688 65.13400268554688,79 69,79 L109,79 C105.13400268554688,79 102,75.86599731445312 102,72 C102,68.1340103149414 105.13400268554688,65 109,65 L207,65 C210.86599731445312,65 214,68.1340103149414 214,72 C214,75.86599731445312 210.86599731445312,79 207,79 L167,79 C170.86599731445312,79 174,82.13400268554688 174,86 C174,89.86599731445312 170.86599731445312,93 167,93 L189,93 C192.86599731445312,93 196,96.13400268554688 196,100 C196,103.86599731445312 192.86599731445312,107 189,107 L178.82608032226562,107 C173.95156860351562,107 170,110.13400268554688 170,114 C170,117.86599731445312 176,121 176,121 C179.86599731445312,121 183,124.13400268554688 183,128 C183,131.86599731445312 179.86599731445312,135 176,135 L214,100 C214,103.86599731445312 210.86599731445312,107 207,107 C203.13400268554688,107 200,103.86599731445312 200,100 C200,96.1340103149414 203.13400268554688,93 207,93 C210.86599731445312,93 214,96.1340103149414 214,100 L176,135Z"/>
    <path id="path-2" opacity="1" fill-rule="evenodd" d="M159.67315673828125,136.1425018310547 L158.70855712890625,67.67184448242188 L99.58265686035156,67.0722427368164 L94.694091796875,67.02107238769531 C94.6871109008789,67.02100372314453 94.68013763427734,67.02096557617188 94.67315673828125,67.02096557617188 C93.56858825683594,67.02096557617188 92.67315673828125,67.91639709472656 92.67315673828125,69.02096557617188 L92.67315673828125,142.9999237060547 C92.67315673828125,145.2090606689453 94.46401977539062,146.9999237060547 96.67315673828125,146.9999237060547 L155.67315673828125,146.9999237060547 C157.88229370117188,146.9999237060547 159.67315673828125,145.2090606689453 159.67315673828125,142.9999237060547 L159.67315673828125,136.1425018310547Z"/>
    <path id="path-3" opacity="1" fill-rule="evenodd" d="M155.70073907711313,71.5543307953051 L156.5645591339271,133.60586252518394 L156.5645591339271,139.82040109940272 C156.5645591339271,141.82243331753932 154.960803013918,143.44540109940272 152.9824695816883,143.44540109940272 L100.14664868616592,143.44540109940272 C98.1683152539362,143.44540109940272 96.5645591339271,141.82243331753932 96.5645591339271,139.82040109940272 L96.5645591339271,72.94540109940272 C96.5645591339271,71.84083159974114 97.45998963426553,70.94540109940272 98.5645591339271,70.94540109940272 L105.10088142870322,70.94540109940272 "/>
    <path id="path-4" opacity="1" fill-rule="evenodd" d="M106.671875,54.000000000000014 C106.671875,51.79086100067684 108.46273600067683,50.000000000000014 110.671875,50.000000000000014 L156.22863626739684,50.000000000000014 C157.2890733959875,50.000000000000014 158.30611393876075,50.421087675189874 159.05618817881205,51.17069793266042 L172.49942691141518,64.60562091694447 C173.25010780668856,65.35583745437097 173.67187499999997,66.37362818096287 173.67187499999997,67.43492298428409 L173.67187499999994,130 C173.67187499999994,132.20913899932316 171.8810139993231,134 169.67187499999994,134 L110.671875,134 C108.46273600067683,134 106.671875,132.20913899932316 106.671875,130 L106.671875,54.000000000000014Z"/>
    <mask id="mask-5" maskUnits="userSpaceOnUse" maskContentUnits="userSpaceOnUse" x="0" y="0">
      <rect opacity="1" x="0" y="0" width="250" height="200" fill="black"/>
      <use xlink:href="#path-4" fill="white"/>
    </mask>
    <path id="path-6" opacity="1" fill-rule="evenodd" d="M156.671875,52.402832031250085 L156.671875,64.00000000000017 C156.671875,65.65685424949255 158.01502075050763,67.00000000000014 159.671875,67.00000000000014 L167.60546875000003,67.00000000000016 "/>
    <path id="path-7" opacity="1" fill-rule="evenodd" d="M118.671875,118 L144.671875,118 L118.671875,118Z"/>
  </defs>
  <g opacity="1">
    <g opacity="1">
      <use xlink:href="#path-1" fill="rgb(243,247,255)" fill-opacity="1"/>
    </g>
    <g transform="translate(126.17315673828125, 107.01044464111328) rotate(-7.00000250294917) translate(-126.17315673828125, -107.01044464111328)" opacity="1">
      <use xlink:href="#path-2" fill="rgb(255,255,255)" fill-opacity="1"/>
      <use xlink:href="#path-2" fill-opacity="0" stroke="rgb(117,164,254)" stroke-opacity="1" stroke-width="2.5" stroke-linecap="round" stroke-linejoin="miter"/>
    </g>
    <g transform="translate(126.5645591339271, 107.19540109940272) rotate(-7.00000250294917) translate(-126.5645591339271, -107.19540109940272)" opacity="1">
      <use xlink:href="#path-3" fill="rgb(232,240,254)" fill-opacity="1"/>
    </g>
    <g opacity="1">
      <use xlink:href="#path-4" fill="rgb(255,255,255)" fill-opacity="1"/>
      <use xlink:href="#path-4" fill-opacity="0" stroke="rgb(117,164,254)" stroke-opacity="1" stroke-width="5" mask="url(#mask-5)"/>
    </g>
    <g opacity="1">
      <use xlink:href="#path-6" fill-opacity="0" stroke="rgb(117,164,254)" stroke-opacity="1" stroke-width="2.5" stroke-linecap="round" stroke-linejoin="round"/>
      <use xlink:href="#path-6" fill-opacity="0" stroke="rgb(117,164,254)" stroke-opacity="1" stroke-width="2.5" stroke-linecap="round" stroke-linejoin="round"/>
    </g>
    <g opacity="1">
      <use xlink:href="#path-7" fill-opacity="0" stroke="rgb(164,195,254)" stroke-opacity="1" stroke-width="2.5" stroke-linecap="round" stroke-linejoin="round"/>
    </g>
  </g>
</svg>