<svg xmlns="http://www.w3.org/2000/svg">
  <symbol id="excel" viewBox="0 0 48 48">
    <path style=" fill:#4CAF50;" d="M 41 10 L 25 10 L 25 38 L 41 38 C 41.554688 38 42 37.554688 42 37 L 42 11 C 42 10.445313 41.554688 10 41 10 Z "></path>
    <path style=" fill:#FFFFFF;" d="M 32 15 L 39 15 L 39 18 L 32 18 Z "></path>
    <path style=" fill:#FFFFFF;" d="M 32 25 L 39 25 L 39 28 L 32 28 Z "></path>
    <path style=" fill:#FFFFFF;" d="M 32 30 L 39 30 L 39 33 L 32 33 Z "></path>
    <path style=" fill:#FFFFFF;" d="M 32 20 L 39 20 L 39 23 L 32 23 Z "></path>
    <path style=" fill:#FFFFFF;" d="M 25 15 L 30 15 L 30 18 L 25 18 Z "></path>
    <path style=" fill:#FFFFFF;" d="M 25 25 L 30 25 L 30 28 L 25 28 Z "></path>
    <path style=" fill:#FFFFFF;" d="M 25 30 L 30 30 L 30 33 L 25 33 Z "></path>
    <path style=" fill:#FFFFFF;" d="M 25 20 L 30 20 L 30 23 L 25 23 Z "></path>
    <path style=" fill:#2E7D32;" d="M 27 42 L 6 38 L 6 10 L 27 6 Z "></path>
    <path style=" fill:#FFFFFF;" d="M 19.128906 31 L 16.71875 26.4375 C 16.625 26.269531 16.53125 25.957031 16.433594 25.5 L 16.398438 25.5 C 16.351563 25.714844 16.242188 26.042969 16.074219 26.480469 L 13.652344 31 L 9.894531 31 L 14.355469 24 L 10.273438 17 L 14.109375 17 L 16.113281 21.195313 C 16.269531 21.527344 16.40625 21.921875 16.53125 22.375 L 16.570313 22.375 C 16.648438 22.105469 16.796875 21.695313 17.011719 21.15625 L 19.238281 17 L 22.753906 17 L 18.554688 23.9375 L 22.867188 30.996094 L 19.128906 30.996094 Z "></path>
  </symbol>
  <symbol id="search" viewBox="0 0 64 64">
    <circle cx="32" cy="25" fill="none" r="16" stroke="#4D4D4D" stroke-linecap="round" stroke-linejoin="round" stroke-miterlimit="10" stroke-width="2"/>
    <line fill="none" stroke="#4D4D4D" stroke-linecap="round" stroke-linejoin="round" stroke-miterlimit="10" x1="40.9" x2="38.8" y1="44.1" y2="39.5"/>
    <line fill="none" stroke="#4D4D4D" stroke-linecap="round" stroke-linejoin="round" stroke-miterlimit="10" stroke-width="4" x1="40.9" x2="46" y1="44.1" y2="55"/>
    <path d="M36.2,13.7   c2.7,1,4.9,2.9,6.3,5.3" fill="none" stroke="#4D4D4D" stroke-linecap="round" stroke-linejoin="round" stroke-miterlimit="10"/>
  </symbol>
  <symbol id="eye-open" viewBox="0 0 24 24">
    <path d="M12.015 7c4.751 0 8.063 3.012 9.504 4.636-1.401 1.837-4.713 5.364-9.504 5.364-4.42 0-7.93-3.536-9.478-5.407 1.493-1.647 4.817-4.593 9.478-4.593zm0-2c-7.569 0-12.015 6.551-12.015 6.551s4.835 7.449 12.015 7.449c7.733 0 11.985-7.449 11.985-7.449s-4.291-6.551-11.985-6.551zm-.015 3c-2.21 0-4 1.791-4 4s1.79 4 4 4c2.209 0 4-1.791 4-4s-1.791-4-4-4zm-.004 3.999c-.564.564-1.479.564-2.044 0s-.565-1.48 0-2.044c.564-.564 1.479-.564 2.044 0s.565 1.479 0 2.044z"/>
  </symbol>
  <symbol id="eye-closed" viewBox="0 0 24 24">
    <path d="M19.604 2.562l-3.346 3.137c-1.27-.428-2.686-.699-4.243-.699-7.569 0-12.015 6.551-12.015 6.551s1.928 2.951 5.146 5.138l-2.911 2.909 1.414 1.414 17.37-17.035-1.415-1.415zm-6.016 5.779c-3.288-1.453-6.681 1.908-5.265 5.206l-1.726 1.707c-1.814-1.16-3.225-2.65-4.06-3.66 1.493-1.648 4.817-4.594 9.478-4.594.927 0 1.796.119 2.61.315l-1.037 1.026zm-2.883 7.431l5.09-4.993c1.017 3.111-2.003 6.067-5.09 4.993zm13.295-4.221s-4.252 7.449-11.985 7.449c-1.379 0-2.662-.291-3.851-.737l1.614-1.583c.715.193 1.458.32 2.237.32 4.791 0 8.104-3.527 9.504-5.364-.729-.822-1.956-1.99-3.587-2.952l1.489-1.46c2.982 1.9 4.579 4.327 4.579 4.327z"/>
  </symbol>
  <symbol id="check" viewBox="0 0 24 24">
    <path d="M21 6.285l-11.16 12.733-6.84-6.018 1.319-1.49 5.341 4.686 9.865-11.196 1.475 1.285z"/>
  </symbol>
  <symbol id="check-multi" viewBox="0 0 24 24">
    <path d="M24 6.278l-11.16 12.722-6.84-6 1.319-1.49 5.341 4.686 9.865-11.196 1.475 1.278zm-22.681 5.232l6.835 6.01-1.314 1.48-6.84-6 1.319-1.49zm9.278.218l5.921-6.728 1.482 1.285-5.921 6.756-1.482-1.313z"/>
  </symbol>
</svg>
