<?xml version="1.0"?><svg version="1.1" id="Layer_1" xmlns="http://www.w3.org/2000/svg" x="0" y="0" viewBox="0 0 100 100" xml:space="preserve"><path d="M77.48 28.757L61.231 12.508c-1.191-1.166-2.28-1.727-3.276-1.732H22.589c-.943 0-1.711.762-1.711 1.698v75.051c0 .936.768 1.698 1.711 1.698h54.822c.943 0 1.711-.762 1.711-1.698V32.033c.009-.998-.508-2.085-1.642-3.276z" fill="#e0e0e0"/><path d="M62.414 28.757H77.48L61.231 12.508v15.066c0 .652.531 1.183 1.183 1.183z" fill="#666"/><path d="M62.256 8.286a2.676 2.676 0 0 0-1.902-.786H22.589c-2.75 0-4.987 2.232-4.987 4.975v75.051c0 2.743 2.237 4.975 4.987 4.975h54.822c2.75 0 4.987-2.232 4.987-4.975V31.085a6.538 6.538 0 0 0-1.937-4.661L62.256 8.286zm-1.025 4.222L77.48 28.757H62.414a1.185 1.185 0 0 1-1.183-1.183m17.891 59.951c0 .936-.767 1.698-1.711 1.698H22.589a1.707 1.707 0 0 1-1.711-1.698v-75.05c0-.936.768-1.698 1.711-1.698h35.366v16.798c0 2.459 2 4.459 4.459 4.459h16.708v55.491z" fill="#323232"/><circle cx="50" cy="62" r="20" fill="#323232"/><path d="M50.455 48.867a.616.616 0 0 0-.91 0L36.83 62.734a.618.618 0 0 0 .455 1.035h8.841v10.7c0 .477.387.864.864.864h6.02a.864.864 0 0 0 .864-.864v-10.7h8.841a.618.618 0 0 0 .455-1.035L50.455 48.867z" fill="#fff"/><metadata xmlns:d="https://loading.io/stock/">
<d:name>upload</d:name>
<d:tags>upload,sync,share,send,backup,file</d:tags>
<d:license>by</d:license>
<d:slug>4us2mw</d:slug>
</metadata></svg>